<svg width="24" height="24" viewBox="0 0 24 24" fill="none" xmlns="http://www.w3.org/2000/svg">
<g id="award_star">
<mask id="mask0_88_126" style="mask-type:alpha" maskUnits="userSpaceOnUse" x="0" y="0" width="24" height="24">
<rect id="Bounding box" width="24" height="24" fill="#D9D9D9"/>
</mask>
<g mask="url(#mask0_88_126)">
<path id="award_star_2" d="M9.07593 16.2504L12.0009 14.4754L14.9259 16.2504L14.1509 12.9254L16.7509 10.6754L13.3259 10.4004L12.0009 7.25044L10.6759 10.4004L7.25093 10.6754L9.85093 12.9254L9.07593 16.2504ZM12.0009 23.3004L8.65093 20.0004H4.00093V15.3504L0.700928 12.0004L4.00093 8.65044V4.00044H8.65093L12.0009 0.700439L15.3509 4.00044H20.0009V8.65044L23.3009 12.0004L20.0009 15.3504V20.0004H15.3509L12.0009 23.3004ZM12.0009 20.5004L14.5009 18.0004H18.0009V14.5004L20.5009 12.0004L18.0009 9.50044V6.00044H14.5009L12.0009 3.50044L9.50093 6.00044H6.00093V9.50044L3.50093 12.0004L6.00093 14.5004V18.0004H9.50093L12.0009 20.5004Z" fill="#BB5302"/>
</g>
</g>
</svg>
