<svg width="28" height="28" viewBox="0 0 28 28" fill="none" xmlns="http://www.w3.org/2000/svg">
<g id="bx:time-five">
<path id="Vector" d="M13.9999 2.33331C7.56692 2.33331 2.33325 7.56698 2.33325 14C2.33325 20.433 7.56692 25.6666 13.9999 25.6666C20.4329 25.6666 25.6666 20.433 25.6666 14C25.6666 7.56698 20.4329 2.33331 13.9999 2.33331ZM13.9999 23.3333C8.85375 23.3333 4.66659 19.1461 4.66659 14C4.66659 8.85381 8.85375 4.66665 13.9999 4.66665C19.1461 4.66665 23.3333 8.85381 23.3333 14C23.3333 19.1461 19.1461 23.3333 13.9999 23.3333Z" fill="white"/>
<path id="Vector_2" d="M15.1666 8.16669H12.8333V14.483L16.6751 18.3249L18.3248 16.6752L15.1666 13.517V8.16669Z" fill="white"/>
</g>
</svg>
