<svg width="62" height="62" viewBox="0 0 62 62" fill="none" xmlns="http://www.w3.org/2000/svg">
<g id="Complete" clip-path="url(#clip0_88_180)">
<g id="Group">
<path id="Vector" d="M56.4781 11.6644H55.771C55.2703 11.6644 54.8646 12.0701 54.8646 12.5709C54.8646 13.0716 55.2703 13.4773 55.771 13.4773H56.4781C58.5233 13.4773 60.1871 15.1411 60.1871 17.1862V51.8584C60.1871 53.9036 58.5232 55.5674 56.4781 55.5674H5.52187C3.47683 55.5676 1.81287 53.9036 1.81287 51.8584V24.0609C1.81287 23.5602 1.40715 23.1545 0.906433 23.1545C0.405719 23.1545 0 23.5602 0 24.0609V51.8584C0 54.9032 2.4771 57.3803 5.52187 57.3803H56.478C59.5228 57.3803 61.9999 54.9032 61.9999 51.8584V17.1863C62 14.1415 59.5229 11.6644 56.4781 11.6644Z" fill="url(#paint0_linear_88_180)"/>
<path id="Vector_2" d="M0.906433 21.1045C1.40715 21.1045 1.81287 20.6988 1.81287 20.1981V10.1414C1.81287 8.09622 3.47683 6.43249 5.52187 6.43249H23.2872C23.9214 6.43249 24.5487 6.59638 25.1019 6.90674L35.5563 12.7714C36.3797 13.2333 37.314 13.4774 38.258 13.4774H42.4508C42.9515 13.4774 43.3572 13.0717 43.3572 12.571C43.3572 12.0703 42.9515 11.6645 42.4508 11.6645H38.258C37.624 11.6645 36.9965 11.5007 36.4432 11.1903L25.9889 5.32568C25.1656 4.86388 24.2315 4.61963 23.2872 4.61963H5.52187C2.4771 4.61951 0 7.09661 0 10.1414V20.1981C0 20.6987 0.405719 21.1045 0.906433 21.1045Z" fill="url(#paint1_linear_88_180)"/>
<path id="Vector_3" d="M25.2129 19.5422C27.0463 18.7696 28.9934 18.3781 31 18.3781C33.0767 18.3781 35.0874 18.7974 36.9765 19.6245C37.0948 19.6763 37.2182 19.7008 37.3395 19.7008C37.6887 19.7008 38.0214 19.4979 38.1703 19.1577C38.3711 18.6992 38.1622 18.1646 37.7036 17.9639C35.5838 17.0358 33.3285 16.5653 31 16.5653C28.7504 16.5653 26.5664 17.0049 24.509 17.8715C24.0477 18.0659 23.8314 18.5975 24.0256 19.0588C24.22 19.5199 24.7514 19.7364 25.2129 19.5422Z" fill="url(#paint2_linear_88_180)"/>
<path id="Vector_4" d="M21.8052 47.2771C24.5374 49.0775 27.7169 50.0291 30.9999 50.0291C40.2259 50.0291 47.7318 42.5233 47.7318 33.2971C47.7318 31.1798 47.3414 29.116 46.5713 27.163C46.3877 26.6973 45.8616 26.4689 45.3955 26.6521C44.9297 26.8358 44.7012 27.3621 44.8846 27.8279C45.5709 29.5683 45.9188 31.4085 45.9188 33.2971C45.9188 41.5235 39.2262 48.2163 30.9998 48.2163C28.0723 48.2163 25.2378 47.368 22.8026 45.7632C22.3845 45.4878 21.8224 45.6033 21.5469 46.0214C21.2713 46.4394 21.3871 47.0016 21.8052 47.2771Z" fill="url(#paint3_linear_88_180)"/>
<path id="Vector_5" d="M18.6851 44.6231C18.8638 44.8173 19.1077 44.9158 19.3523 44.9158C19.5717 44.9158 19.7917 44.8366 19.9658 44.6765C20.3343 44.3375 20.3581 43.764 20.0191 43.3956C17.4794 40.6356 16.0808 37.0493 16.0808 33.2971C16.0808 31.0834 16.5549 28.9518 17.4898 26.962C17.7027 26.5089 17.5079 25.969 17.0548 25.7561C16.6018 25.5434 16.0618 25.7381 15.8489 26.191C14.7997 28.4239 14.2678 30.8147 14.2678 33.2971C14.2681 37.5053 15.8367 41.5275 18.6851 44.6231Z" fill="url(#paint4_linear_88_180)"/>
<path id="Vector_6" d="M31 46.4035C38.2268 46.4035 44.1061 40.5241 44.1061 33.2973C44.1061 32.2223 43.9742 31.1508 43.714 30.1122C43.5923 29.6265 43.1004 29.332 42.6143 29.4533C42.1287 29.5752 41.8337 30.0674 41.9554 30.553C42.1795 31.4475 42.2933 32.3708 42.2933 33.2973C42.2933 39.5244 37.227 44.5906 31 44.5906C24.7729 44.5906 19.7067 39.5244 19.7067 33.2973C19.7067 27.0701 24.7729 22.0039 31 22.0039C32.0925 22.0039 33.1748 22.1613 34.2168 22.4715C34.697 22.6136 35.2013 22.3412 35.3443 21.8614C35.4872 21.3815 35.214 20.8769 34.7342 20.7339C33.5241 20.3738 32.2678 20.191 31 20.191C23.7732 20.191 17.8938 26.0704 17.8938 33.2973C17.8938 40.524 23.7732 46.4035 31 46.4035Z" fill="url(#paint5_linear_88_180)"/>
<path id="Vector_7" d="M42.3352 17.7046L30.1141 29.6873L28.4754 27.9345C27.9465 27.3691 27.0563 27.3391 26.4909 27.8679L23.6865 30.4895C23.4126 30.7457 23.255 31.0932 23.2423 31.468C23.2297 31.8429 23.3638 32.2003 23.6199 32.474L27.5827 36.7129C27.7701 36.9132 27.9893 37.0937 28.2347 37.249C28.3797 37.341 28.5479 37.3897 28.7197 37.3897H31.3047C31.4767 37.3897 31.645 37.3407 31.7904 37.2486C31.9909 37.1212 32.1752 36.9758 32.3377 36.8165L37.3987 31.8543C37.7561 31.5038 37.7617 30.9299 37.4113 30.5724C37.0607 30.2148 36.4868 30.2096 36.1294 30.5599L31.0684 35.5223C31.0494 35.5408 31.0297 35.5591 31.0092 35.5769H29.0137C28.9756 35.5442 28.94 35.5101 28.9072 35.475L25.2235 31.5346L27.4306 29.4713L29.0757 31.231C29.3362 31.5098 29.6898 31.6678 30.0711 31.6761C30.456 31.686 30.8124 31.5418 31.0845 31.275L43.3127 19.2854L45.428 21.4428L38.8985 27.845C38.5412 28.1955 38.5355 28.7694 38.886 29.1269C39.2366 29.4845 39.8104 29.4897 40.1678 29.1394L46.989 22.4512C47.2569 22.1885 47.4064 21.8374 47.4101 21.4622C47.4137 21.0872 47.2713 20.7333 47.0087 20.4653L44.3212 17.7243C44.0586 17.4564 43.7075 17.3069 43.3322 17.3032C42.9516 17.3021 42.6032 17.4421 42.3352 17.7046Z" fill="url(#paint6_linear_88_180)"/>
<path id="Vector_8" d="M17.3785 23.3997C17.6241 23.8557 18.0792 24.1393 18.596 24.1579C18.6141 24.1587 18.6324 24.159 18.6505 24.159C19.1496 24.159 19.6042 23.9096 19.8747 23.4842C20.3516 22.7342 20.984 22.1187 21.8079 21.6022C22.2452 21.3279 22.5001 20.8566 22.4897 20.3411C22.4793 19.8311 22.209 19.3757 21.7669 19.1229C20.9044 18.6294 20.2742 18.0268 19.8407 17.2808C19.5818 16.8352 19.1185 16.5678 18.6013 16.5652C18.5988 16.5652 18.5964 16.5652 18.5937 16.5652C18.0797 16.5652 17.6172 16.8276 17.3553 17.2681C16.9161 18.0067 16.3223 18.5951 15.54 19.0675C15.0939 19.3369 14.8244 19.8276 14.8368 20.3482C14.8492 20.8692 15.1294 21.3277 15.5866 21.5751C16.3549 21.9909 16.9412 22.5875 17.3785 23.3997ZM18.9134 18.1946C18.9134 18.1947 18.9132 18.195 18.913 18.1952C18.9131 18.1951 18.9132 18.1948 18.9134 18.1946ZM18.5923 18.6856C19.0577 19.3369 19.6521 19.9067 20.3678 20.3872C19.7075 20.8636 19.1408 21.4154 18.6746 22.0354C18.2154 21.3341 17.6447 20.7518 16.9696 20.2958C17.6069 19.8409 18.15 19.3019 18.5923 18.6856Z" fill="url(#paint7_linear_88_180)"/>
<path id="Vector_9" d="M48.369 48.3887C49.3396 48.9137 50.0794 49.6665 50.6306 50.6902C50.896 51.1833 51.3882 51.4897 51.9468 51.51C51.9665 51.5107 51.986 51.511 52.0056 51.511C52.5455 51.511 53.0373 51.2412 53.33 50.7808C53.9268 49.8424 54.7169 49.0727 55.7453 48.4278C56.2185 48.1314 56.4943 47.6214 56.483 47.0638C56.4719 46.5127 56.1801 46.0207 55.7023 45.7475C54.6212 45.129 53.8301 44.3716 53.2841 43.4323C53.0045 42.9512 52.5037 42.6622 51.9447 42.6593C51.9421 42.6593 51.9393 42.6593 51.9366 42.6593C51.3809 42.6593 50.881 42.9428 50.5981 43.4187C50.0541 44.3335 49.2878 45.0936 48.3204 45.6776C47.8376 45.9691 47.546 46.5 47.5593 47.0634C47.5726 47.6262 47.8753 48.1215 48.369 48.3887ZM51.9354 44.6964C52.5583 45.6417 53.4014 46.4511 54.4494 47.1095C53.4754 47.7721 52.6618 48.5653 52.0234 49.4743C51.4025 48.4469 50.5911 47.6204 49.6042 47.0098C50.5486 46.3809 51.3304 45.605 51.9354 44.6964Z" fill="url(#paint8_linear_88_180)"/>
<path id="Vector_10" d="M45.4395 11.8592C46.4101 12.3843 47.1498 13.1371 47.7011 14.1609C47.9666 14.6539 48.4586 14.9603 49.0172 14.9805C49.0369 14.9812 49.0565 14.9815 49.0761 14.9815C49.6158 14.9815 50.1077 14.7115 50.4004 14.2513C50.9972 13.3129 51.7874 12.5432 52.8158 11.8983C53.2889 11.6019 53.5647 11.0919 53.5535 10.5343C53.5424 9.98323 53.2505 9.49122 52.7727 9.21796C51.6917 8.59953 50.9005 7.84212 50.3545 6.90281C50.0749 6.42168 49.5741 6.13271 49.0151 6.12981C48.4603 6.12558 47.9528 6.41104 47.6684 6.88916C47.1244 7.80405 46.3581 8.56412 45.3907 9.14811C44.9079 9.43962 44.6163 9.97067 44.6296 10.534C44.6431 11.0969 44.9459 11.5922 45.4395 11.8592ZM49.0057 8.16686C49.6286 9.11221 50.4717 9.9216 51.5197 10.58C50.5457 11.2426 49.732 12.0359 49.0937 12.9449C48.4729 11.9176 47.6614 11.0911 46.6745 10.4804C47.619 9.85138 48.4008 9.07547 49.0057 8.16686Z" fill="url(#paint9_linear_88_180)"/>
</g>
</g>
<defs>
<linearGradient id="paint0_linear_88_180" x1="30.9999" y1="11.6644" x2="30.9999" y2="54.4117" gradientUnits="userSpaceOnUse">
<stop stop-color="#B73BBE"/>
<stop offset="1" stop-color="#992E9D"/>
</linearGradient>
<linearGradient id="paint1_linear_88_180" x1="21.6786" y1="4.61963" x2="21.6786" y2="20.0341" gradientUnits="userSpaceOnUse">
<stop stop-color="#B73BBE"/>
<stop offset="1" stop-color="#992E9D"/>
</linearGradient>
<linearGradient id="paint2_linear_88_180" x1="31.1005" y1="16.5653" x2="31.1005" y2="19.4972" gradientUnits="userSpaceOnUse">
<stop stop-color="#B73BBE"/>
<stop offset="1" stop-color="#992E9D"/>
</linearGradient>
<linearGradient id="paint3_linear_88_180" x1="34.5645" y1="26.5889" x2="34.5645" y2="48.507" gradientUnits="userSpaceOnUse">
<stop stop-color="#B73BBE"/>
<stop offset="1" stop-color="#992E9D"/>
</linearGradient>
<linearGradient id="paint4_linear_88_180" x1="17.2632" y1="25.6699" x2="17.2632" y2="43.666" gradientUnits="userSpaceOnUse">
<stop stop-color="#B73BBE"/>
<stop offset="1" stop-color="#992E9D"/>
</linearGradient>
<linearGradient id="paint5_linear_88_180" x1="31" y1="20.191" x2="31" y2="44.7014" gradientUnits="userSpaceOnUse">
<stop stop-color="#B73BBE"/>
<stop offset="1" stop-color="#992E9D"/>
</linearGradient>
<linearGradient id="paint6_linear_88_180" x1="35.3258" y1="17.3032" x2="35.3258" y2="36.0853" gradientUnits="userSpaceOnUse">
<stop stop-color="#B73BBE"/>
<stop offset="1" stop-color="#992E9D"/>
</linearGradient>
<linearGradient id="paint7_linear_88_180" x1="18.6632" y1="16.5652" x2="18.6632" y2="23.6659" gradientUnits="userSpaceOnUse">
<stop stop-color="#B73BBE"/>
<stop offset="1" stop-color="#992E9D"/>
</linearGradient>
<linearGradient id="paint8_linear_88_180" x1="52.0211" y1="42.6593" x2="52.0211" y2="50.9363" gradientUnits="userSpaceOnUse">
<stop stop-color="#B73BBE"/>
<stop offset="1" stop-color="#992E9D"/>
</linearGradient>
<linearGradient id="paint9_linear_88_180" x1="49.0915" y1="6.12976" x2="49.0915" y2="14.4068" gradientUnits="userSpaceOnUse">
<stop stop-color="#B73BBE"/>
<stop offset="1" stop-color="#992E9D"/>
</linearGradient>
<clipPath id="clip0_88_180">
<rect width="62" height="62" fill="white"/>
</clipPath>
</defs>
</svg>
