<svg width="20" height="21" viewBox="0 0 20 21" fill="none" xmlns="http://www.w3.org/2000/svg">
<g id="fi-br-interrogation" clip-path="url(#clip0_88_146)">
<path id="Vector" d="M10 0.5C8.02219 0.5 6.08879 1.08649 4.4443 2.1853C2.79981 3.28412 1.51809 4.8459 0.761209 6.67317C0.00433286 8.50043 -0.193701 10.5111 0.192152 12.4509C0.578004 14.3907 1.53041 16.1725 2.92894 17.5711C4.32746 18.9696 6.10929 19.922 8.0491 20.3079C9.98891 20.6937 11.9996 20.4957 13.8268 19.7388C15.6541 18.9819 17.2159 17.7002 18.3147 16.0557C19.4135 14.4112 20 12.4778 20 10.5C19.9971 7.84872 18.9426 5.30684 17.0679 3.4321C15.1932 1.55736 12.6513 0.502868 10 0.5V0.5ZM10 18C8.51664 18 7.0666 17.5601 5.83323 16.736C4.59986 15.9119 3.63857 14.7406 3.07091 13.3701C2.50325 11.9997 2.35473 10.4917 2.64411 9.03682C2.9335 7.58197 3.64781 6.24559 4.6967 5.1967C5.7456 4.14781 7.08197 3.4335 8.53683 3.14411C9.99168 2.85472 11.4997 3.00325 12.8701 3.5709C14.2406 4.13856 15.4119 5.09985 16.236 6.33322C17.0601 7.56659 17.5 9.01664 17.5 10.5C17.4978 12.4884 16.7069 14.3948 15.3009 15.8009C13.8948 17.2069 11.9885 17.9978 10 18Z" fill="#992E9D"/>
<path id="Vector_2" d="M10.0044 16.3336C10.6948 16.3336 11.2544 15.774 11.2544 15.0836C11.2544 14.3933 10.6948 13.8336 10.0044 13.8336C9.31404 13.8336 8.75439 14.3933 8.75439 15.0836C8.75439 15.774 9.31404 16.3336 10.0044 16.3336Z" fill="#992E9D"/>
<path id="Vector_3" d="M10.631 4.65556C10.1213 4.56417 9.59771 4.58568 9.09719 4.71857C8.59667 4.85146 8.13138 5.09249 7.73411 5.42469C7.33683 5.75689 7.01725 6.17217 6.79786 6.64126C6.57848 7.11036 6.46464 7.62186 6.46436 8.13972C6.46436 8.47124 6.59605 8.78918 6.83047 9.0236C7.06489 9.25802 7.38283 9.38972 7.71435 9.38972C8.04587 9.38972 8.36382 9.25802 8.59824 9.0236C8.83266 8.78918 8.96435 8.47124 8.96435 8.13972C8.96511 7.95633 9.01434 7.77641 9.10707 7.61819C9.19979 7.45997 9.3327 7.32908 9.49232 7.23879C9.65195 7.1485 9.83261 7.10203 10.016 7.10408C10.1994 7.10613 10.3789 7.15664 10.5365 7.25048C10.6941 7.34432 10.824 7.47815 10.9132 7.63841C11.0023 7.79866 11.0475 7.97965 11.0442 8.163C11.0408 8.34636 10.989 8.52557 10.8941 8.68247C10.7991 8.83937 10.6644 8.96836 10.5035 9.05639C9.98787 9.27235 9.54967 9.63932 9.24654 10.109C8.94341 10.5788 8.78955 11.1292 8.80518 11.688C8.80518 12.0196 8.93688 12.3375 9.1713 12.5719C9.40572 12.8064 9.72366 12.938 10.0552 12.938C10.3867 12.938 10.7046 12.8064 10.9391 12.5719C11.1735 12.3375 11.3052 12.0196 11.3052 11.688C11.3044 11.6272 11.3089 11.5664 11.3185 11.5064C11.4352 11.3999 11.5676 11.3119 11.711 11.2456C12.3512 10.8927 12.8664 10.3503 13.186 9.69294C13.5055 9.03554 13.6137 8.29533 13.4958 7.57396C13.3778 6.85259 13.0394 6.18543 12.5271 5.66408C12.0147 5.14273 11.3536 4.79276 10.6343 4.66223L10.631 4.65556Z" fill="#992E9D"/>
</g>
<defs>
<clipPath id="clip0_88_146">
<rect width="20" height="20" fill="white" transform="translate(0 0.5)"/>
</clipPath>
</defs>
</svg>
