<svg width="24" height="24" viewBox="0 0 24 24" fill="none" xmlns="http://www.w3.org/2000/svg">
<g id="Graduation hat" clip-path="url(#clip0_88_112)">
<path id="Vector" d="M21.3965 10.1592H22.1208V13.4752H21.3965V10.1592Z" fill="#1B81A5"/>
<path id="Vector_2" d="M18.2745 10.0647H5.72553L4.63056 16.2921C4.59046 16.5201 4.74646 16.7356 4.97534 16.7695C5.92896 16.9105 8.44006 17.4113 11.8178 19.0713C11.9328 19.1277 12.0672 19.1277 12.1822 19.0713C15.5599 17.4113 18.071 16.9105 19.0247 16.7695C19.2535 16.7356 19.4095 16.5201 19.3694 16.2921L18.2745 10.0647Z" fill="#33393A"/>
<path id="Vector_3" d="M19.3694 16.2921L18.2744 10.0647H15.4282L16.6997 17.2955C17.7742 16.9835 18.5738 16.8361 19.0246 16.7695C19.2535 16.7356 19.4095 16.5201 19.3694 16.2921Z" fill="#2A2F33"/>
<path id="Vector_4" d="M11.9396 4.88654L0.103683 9.57953C-0.0345611 9.63428 -0.0345611 9.82983 0.103683 9.88458L11.9396 14.5776C11.9784 14.593 12.0216 14.593 12.0605 14.5776L23.8964 9.88458C24.0346 9.82983 24.0346 9.63446 23.8964 9.57971L12.0605 4.88654C12.0216 4.87115 11.9784 4.87115 11.9396 4.88654Z" fill="#464C50"/>
<path id="Vector_5" d="M23.8966 9.57953L20.4665 8.2196L10.0864 12.3354C9.90788 12.4061 9.70884 12.4061 9.53032 12.3354L1.34184 9.08862L0.103683 9.57953C-0.0345611 9.63428 -0.0345611 9.82983 0.103683 9.88458L8.18541 13.0891L11.9396 14.5776C11.9784 14.593 12.0216 14.593 12.0605 14.5776L23.8964 9.88458C24.0346 9.82983 24.0346 9.63428 23.8966 9.57953Z" fill="#2A2F33"/>
<path id="Vector_6" d="M21.0289 13.3356V14.3632L20.6554 17.9465C20.6433 18.0608 20.733 18.1602 20.8478 18.1602H22.6694C22.7844 18.1602 22.8737 18.0608 22.8618 17.9465L22.4883 14.3632V13.3356C22.4883 13.1684 22.3528 13.0331 22.1858 13.0331H21.3314C21.1644 13.0331 21.0289 13.1686 21.0289 13.3356Z" fill="#FCB038"/>
<path id="Vector_7" d="M21.0288 13.3356V14.3632H22.4882V13.3356C22.4882 13.1684 22.3527 13.0331 22.1857 13.0331H21.3313C21.1643 13.0331 21.0288 13.1686 21.0288 13.3356Z" fill="#F3E8D7"/>
</g>
<defs>
<clipPath id="clip0_88_112">
<rect width="24" height="24" fill="white"/>
</clipPath>
</defs>
</svg>
