<svg width="22" height="23" viewBox="0 0 22 23" fill="none" xmlns="http://www.w3.org/2000/svg">
<g id="Group">
<path id="Vector" d="M21.0829 1.41906C20.3249 0.650465 19.2195 0.335334 18.1702 0.588685L4.15819 3.53351C1.49726 3.92726 -0.340637 6.40358 0.0531151 9.06446C0.206191 10.099 0.688187 11.0567 1.42779 11.7961L2.92997 13.2992C3.0003 13.3686 3.03961 13.4634 3.03905 13.5623V16.3339C3.04107 18.0581 4.43834 19.4554 6.1626 19.4574H8.9342C9.03314 19.4574 9.12809 19.4966 9.19816 19.5665L10.7003 21.0687C11.6087 21.983 12.844 22.4976 14.1328 22.4985C14.6648 22.498 15.1932 22.411 15.6973 22.2409C17.4369 21.6632 18.701 20.1525 18.9629 18.3383L21.9077 4.37033C22.1723 3.30993 21.8589 2.18861 21.0829 1.41906ZM2.86128 7.67531C3.11037 6.90572 3.78256 6.35 4.58528 6.25012C4.61767 6.24582 4.64972 6.24032 4.68151 6.23362L16.8916 3.66734L5.7887 14.7638V13.5622C5.79072 12.7333 5.4606 11.9381 4.87218 11.3543L3.3718 9.8521C2.79391 9.28688 2.59491 8.43854 2.86128 7.67531ZM16.2628 17.8195C16.2555 17.8516 16.2509 17.8837 16.2463 17.9158C16.0872 19.0768 15.017 19.8889 13.856 19.7297C13.3974 19.6668 12.9718 19.4556 12.6444 19.1284L11.1431 17.6271C10.559 17.0385 9.76346 16.7084 8.93425 16.7105H7.73267L18.8328 5.60765L16.2628 17.8195Z" fill="#FCF5FE"/>
</g>
</svg>
