<svg width="62" height="62" viewBox="0 0 62 62" fill="none" xmlns="http://www.w3.org/2000/svg">
<g id="Online learning" clip-path="url(#clip0_88_149)">
<g id="Group">
<path id="Vector" d="M61.0918 52.5078H59.4849V19.8796C59.4849 17.4898 57.5401 15.5456 55.1497 15.5456H53.0164C53.2496 15.0576 53.3782 14.5163 53.3782 13.9538C53.3782 12.5843 52.6266 11.3351 51.4165 10.6936L39.5409 4.4028C39.0977 4.16788 38.5479 4.33692 38.3132 4.78025C38.0784 5.22345 38.2475 5.7731 38.6907 6.0079L50.5661 12.2986C51.1896 12.6291 51.5618 13.2479 51.5618 13.9538C51.5618 14.6598 51.1896 15.2785 50.5663 15.6088L39.0222 21.7243L31.683 13.355C31.3523 12.9778 30.7784 12.9403 30.4013 13.271C30.0242 13.6017 29.9866 14.1755 30.3173 14.5526L37.3727 22.5982L33.0046 24.9122C31.7494 25.5762 30.2509 25.5762 28.9961 24.9124L11.4339 15.6091C10.8105 15.2786 10.4382 14.6598 10.4382 13.9539C10.4382 13.2481 10.8104 12.6293 11.4337 12.2988L28.9955 2.99545C30.2507 2.33137 31.7492 2.33137 33.0039 2.99521L35.5178 4.32724C35.961 4.56216 36.5107 4.39323 36.7455 3.95003C36.9803 3.50683 36.8114 2.95706 36.3683 2.72226L33.8539 1.38999C32.0668 0.444366 29.9329 0.444366 28.1457 1.39011L10.5832 10.6939C9.37338 11.3352 8.62187 12.5844 8.62187 13.9539C8.62187 14.5164 8.75048 15.0576 8.9837 15.5457H6.85027C4.45988 15.5457 2.51512 17.4899 2.51512 19.8797V52.5079H0.908203C0.406633 52.5079 0 52.9145 0 53.4161V55.429C0 58.6769 2.64227 61.3193 5.89012 61.3193H56.1098C59.3576 61.3193 62 58.677 62 55.429V53.4161C62 52.9144 61.5934 52.5078 61.0918 52.5078ZM38.8125 36.7515L39.9967 38.8026C40.2414 39.2266 40.0782 39.6009 39.9967 39.7421C39.9152 39.8833 39.6726 40.2118 39.183 40.2118H38.4418C37.9522 40.2118 37.7098 39.8833 37.6282 39.7421C37.5466 39.6008 37.3835 39.2266 37.6282 38.8026L38.8125 36.7515ZM39.7207 23.4099L43.4787 21.4191V25.0257C43.4787 27.6159 42.0149 29.938 39.7207 31.0406V23.4099ZM30.9999 27.2269C31.9801 27.2269 32.9606 26.9904 33.8543 26.5177L37.9043 24.3722V31.7433C32.9421 33.3871 27.4521 33.2025 22.6087 31.1895C20.1257 30.1575 18.5213 27.738 18.5213 25.0258V21.419L28.1462 26.5178C29.0396 26.9907 30.0196 27.2269 30.9999 27.2269ZM4.33152 19.8796C4.33152 18.4913 5.46145 17.362 6.85027 17.362H10.863L15.4346 19.7839H7.6616C7.16003 19.7839 6.7534 20.1905 6.7534 20.6921V49.1782C6.7534 49.6798 7.16003 50.0864 7.6616 50.0864H12.4557C12.9573 50.0864 13.3639 49.6798 13.3639 49.1782C13.3639 48.6766 12.9573 48.27 12.4557 48.27H8.5698V21.6003H16.7049V25.0257C16.7049 28.4743 18.7486 31.552 21.9117 32.8667C24.7995 34.067 27.8998 34.6672 31.0001 34.6672C33.3317 34.6672 35.6631 34.3275 37.9044 33.6486V34.6917L36.0553 37.8944C35.5571 38.7572 35.5571 39.7875 36.0553 40.6503C36.5535 41.5131 37.4456 42.0282 38.4419 42.0282H39.1832C40.1795 42.0282 41.0716 41.5131 41.5698 40.6503C42.068 39.7875 42.068 38.7572 41.5698 37.8944L39.7207 34.6917V33.0141C39.8435 32.9655 39.9664 32.9175 40.0885 32.8667C43.2514 31.552 45.2951 28.4743 45.2951 25.0257V21.6003H53.4302V48.27H16.0885C15.5869 48.27 15.1803 48.6766 15.1803 49.1782C15.1803 49.6798 15.5869 50.0864 16.0885 50.0864H54.3384C54.84 50.0864 55.2466 49.6798 55.2466 49.1782V20.6921C55.2466 20.1905 54.84 19.7839 54.3384 19.7839H46.5653L51.1369 17.362H55.1496C56.5384 17.362 57.6684 18.4913 57.6684 19.8796V52.5078H4.33152V19.8796ZM36.6163 54.3247C36.2808 55.3013 35.3528 56.0052 34.2638 56.0052H27.7363C26.6472 56.0052 25.7193 55.3013 25.3837 54.3247H36.6163ZM60.1836 55.4289C60.1836 57.6752 58.356 59.5028 56.1098 59.5028H5.89012C3.64383 59.5028 1.81641 57.6752 1.81641 55.4289V54.3242H3.414C3.41714 54.3242 3.42017 54.3247 3.42332 54.3247H23.51C23.8885 56.3133 25.6391 57.8216 27.7363 57.8216H34.2638C36.3609 57.8216 38.1115 56.3131 38.49 54.3247H58.5767C58.5798 54.3247 58.5829 54.3242 58.586 54.3242H60.1836V55.4289Z" fill="url(#paint0_linear_88_149)"/>
<path id="Vector_2" d="M31.2746 44.9399C31.2746 44.4384 30.868 44.0317 30.3664 44.0317H12.1848C11.6832 44.0317 11.2766 44.4384 11.2766 44.9399C11.2766 45.4415 11.6832 45.8481 12.1848 45.8481H30.3666C30.868 45.8481 31.2746 45.4415 31.2746 44.9399Z" fill="url(#paint1_linear_88_149)"/>
<path id="Vector_3" d="M12.1848 42.0283H24.3414C24.843 42.0283 25.2496 41.6217 25.2496 41.1201C25.2496 40.6185 24.843 40.2119 24.3414 40.2119H12.1848C11.6832 40.2119 11.2766 40.6185 11.2766 41.1201C11.2766 41.6217 11.6831 42.0283 12.1848 42.0283Z" fill="url(#paint2_linear_88_149)"/>
</g>
</g>
<defs>
<linearGradient id="paint0_linear_88_149" x1="31" y1="0.680786" x2="31" y2="57.3817" gradientUnits="userSpaceOnUse">
<stop stop-color="#B73BBE"/>
<stop offset="1" stop-color="#992E9D"/>
</linearGradient>
<linearGradient id="paint1_linear_88_149" x1="21.2756" y1="44.0317" x2="21.2756" y2="45.7302" gradientUnits="userSpaceOnUse">
<stop stop-color="#B73BBE"/>
<stop offset="1" stop-color="#992E9D"/>
</linearGradient>
<linearGradient id="paint2_linear_88_149" x1="18.2631" y1="40.2119" x2="18.2631" y2="41.9104" gradientUnits="userSpaceOnUse">
<stop stop-color="#B73BBE"/>
<stop offset="1" stop-color="#992E9D"/>
</linearGradient>
<clipPath id="clip0_88_149">
<rect width="62" height="62" fill="white"/>
</clipPath>
</defs>
</svg>
