<svg width="89" height="91" viewBox="0 0 89 91" fill="none" xmlns="http://www.w3.org/2000/svg">
<g id="scribble final version-24">
<path id="Path" d="M45.1996 59.6245C45.1996 59.6245 53.5595 61.9049 52.6599 63.4984C51.2007 66.0635 39.3826 68.0944 38.4488 67.6817C37.515 67.2689 37.0981 59.6541 38.4168 57.4965C39.2149 56.173 42.217 54.7322 44.1029 56.9386C44.7578 57.6865 45.1438 58.6319 45.1996 59.6245Z" fill="#FEFEFE" fill-opacity="0.5"/>
<path id="Path_2" d="M71.8163 38.9429C71.1513 38.3992 70.4366 37.9192 69.6817 37.5093C68.9629 37.1284 68.2018 36.8331 67.414 36.6295C65.8963 36.1919 64.2909 36.1537 62.7536 36.5186C61.6232 36.7881 60.8394 37.8172 60.8802 38.9782C60.871 39.4696 61.0147 39.9516 61.2914 40.3577C61.64 40.9216 62.1054 41.4042 62.6562 41.7732C64.6405 43.0385 66.9962 43.5923 69.3373 43.3437C69.7486 43.2969 70.1513 43.1929 70.5339 43.0348L70.6453 42.96L70.7984 42.8571L71.1117 42.6467C71.332 42.5243 71.5416 42.3835 71.7382 42.2259C72.523 41.6264 73.1588 40.854 73.5961 39.9687C74.4582 38.0175 74.6093 35.8262 74.0231 33.7759C73.7502 32.6733 73.3545 31.6048 72.8434 30.5905C72.3291 29.5915 71.6738 28.6715 70.8978 27.8589C69.1906 26.1724 67.2653 24.722 65.1731 23.5462C63.2744 22.4186 61.2574 21.4007 59.2262 20.3015C57.0946 19.2259 55.1094 17.8823 53.3188 16.3033C52.0807 15.175 51.1334 13.7644 50.5573 12.1914C50.4207 11.795 50.3107 11.39 50.2279 10.979C50.1306 10.5813 50.0648 10.1765 50.0311 9.76846C49.9202 8.89629 49.9655 8.01127 50.1648 7.1548C50.5983 5.33611 51.883 3.83796 53.6146 3.13178C55.0838 2.57128 56.6532 2.32171 58.2235 2.39888C60.1236 2.47564 59.8182 2.98358 58.3811 3.71651C57.4635 4.19282 56.5746 4.72239 55.7189 5.30251C55.2505 5.6169 54.8181 5.98179 54.4294 6.39061C54.1393 6.71672 53.9133 7.09456 53.7632 7.50434C53.6207 7.90608 53.5634 8.33306 53.5951 8.75807C53.6132 9.0152 53.6497 9.27068 53.7044 9.52256C53.7616 9.81242 53.8386 10.098 53.935 10.3773C54.0686 10.8758 54.2838 11.3487 54.5719 11.7769C54.8383 12.2387 55.1572 12.6682 55.5224 13.0567C57.0995 14.7132 59.5687 16.0736 62.1168 17.4011C64.8621 18.7345 67.5199 20.2406 70.0745 21.9102C71.4533 22.8242 72.725 23.8903 73.8655 25.0884C75.0346 26.3726 75.9766 27.8464 76.6511 29.4467C77.4732 31.3144 77.9837 33.3041 78.1625 35.3371C78.2479 36.3983 78.2162 37.4658 78.0679 38.5202C77.9016 39.6002 77.5889 40.6526 77.1382 41.6483C76.1587 43.6633 74.6113 45.3482 72.6865 46.4956C71.6405 47.0866 70.4798 47.446 69.2831 47.5496C68.2197 47.6575 67.147 47.6317 66.0901 47.4729C63.7645 47.1621 61.5547 46.2716 59.664 44.8832C58.6098 44.0956 57.7637 43.0629 57.1989 41.8745C56.93 41.2184 56.7669 40.5237 56.7157 39.8164C56.6715 39.1345 56.7408 38.45 56.921 37.7907C57.2178 36.4628 57.9409 35.2681 58.9798 34.3889C59.4869 33.9696 60.0512 33.6246 60.6555 33.3644C60.9332 33.225 61.2242 33.1141 61.5242 33.0335C61.802 32.9319 62.0881 32.8546 62.3792 32.8025C63.5055 32.5669 64.6608 32.5023 65.8062 32.611C66.9112 32.6949 68.0031 32.9031 69.0613 33.2314C69.7199 33.4248 70.3628 33.6681 70.9844 33.9591C71.5807 34.2754 72.1793 34.5801 72.7315 34.9361C73.856 35.6164 74.9155 36.3985 75.8967 37.2727C77.8693 39.0041 79.5326 41.0586 80.8154 43.3483C81.8282 45.1361 82.4673 47.1111 82.6939 49.1536C82.8779 51.2851 82.4464 53.4249 81.4506 55.3191C80.4426 57.1835 78.9353 58.7307 77.0976 59.7872C76.2173 60.3131 75.2821 60.7414 74.3089 61.0644C73.3516 61.3876 72.367 61.6231 71.3672 61.768C68.3337 62.1298 65.2599 61.9362 62.2964 61.1966C59.4227 60.6026 56.7296 59.7662 54.1099 59.3248C53.011 59.1408 51.898 59.0538 50.7838 59.0649C49.4252 59.078 48.0732 59.257 46.7579 59.598C46.0142 59.783 45.2413 59.8182 44.484 59.7017C44.1611 59.6857 43.8399 59.6449 43.5233 59.5796C43.0856 59.4394 43.098 58.9465 43.6325 58.0727C44.5304 56.7875 45.8192 55.8263 47.3072 55.3322C48.7559 54.813 50.2819 54.5425 51.8206 54.5322C53.2602 54.5325 54.6969 54.6588 56.1144 54.9095C57.4941 55.1439 58.8321 55.4366 60.126 55.7387L63.8565 56.676C66.0524 57.2907 68.3414 57.5044 70.6137 57.3069C72.6618 57.1069 74.6063 56.31 76.206 55.0151C77.2487 54.1046 77.9766 52.8878 78.2855 51.5388C78.5948 50.0902 78.4869 48.5839 77.9742 47.1947C76.7412 43.9284 74.5889 41.0893 71.777 39.0198L71.8163 38.9429Z" fill="url(#paint0_linear_88_1217)"/>
<path id="Path_3" d="M41.042 65.4662C43.2886 65.2365 45.511 64.8114 47.6839 64.1958C48.069 64.0819 48.4481 63.9486 48.8198 63.7964L49.0892 63.6861L49.1518 63.6441C49.1936 63.616 49.2354 63.588 49.2841 63.5552C49.5169 63.5057 49.7296 63.3875 49.8946 63.2159C49.9799 62.9668 49.7353 62.8282 49.5395 62.6871L49.19 62.4675L49.1573 62.4188L49.0177 62.3914L48.7755 62.2714L48.2701 62.0454L46.2371 61.109L45.2847 60.6684L44.7676 60.4099L44.4508 60.2088C44.3535 60.1284 44.2616 60.0417 44.1755 59.9494C44.0051 59.7556 43.8606 59.5404 43.7457 59.3093C43.6102 59.1075 43.5864 58.9518 43.4998 58.7778L43.1224 57.8097L42.229 55.4416C41.9856 54.6715 41.6735 53.9249 41.2965 53.2108C41.0301 52.8142 41.2435 52.6204 41.8182 52.7392C42.699 53.0037 43.4665 53.5539 43.9997 54.3029C44.1352 54.5047 44.266 54.6995 44.4015 54.9012L44.7081 55.5232L45.2793 56.7347C45.4549 57.1316 45.6282 57.5099 45.8037 57.8464L45.9532 58.069C45.9532 58.069 46.0139 58.1595 45.9532 58.069L46.058 58.1198L46.2931 58.2143L46.8565 58.4215L48.0741 58.8657C48.4839 59.0246 48.9076 59.1742 49.3174 59.3633L50.7986 60.0647C51.5739 60.4239 52.2935 60.8926 52.9353 61.4565C53.4858 61.9281 53.7932 62.6235 53.7714 63.3482C53.6099 64.0763 53.1865 64.7198 52.5819 65.1567C51.8907 65.7224 51.1294 66.1964 50.3167 66.5668C48.0126 67.452 45.6287 68.1131 43.198 68.5411C42.4636 68.6809 41.7152 68.7999 40.9481 68.8911L40.2089 68.9635C39.9395 68.9941 39.6685 69.0075 39.3975 69.0037C38.8926 69.0286 38.3894 68.9299 37.9316 68.7161L37.7779 68.6376C37.5281 68.3635 37.3203 68.0541 37.1611 67.7192L36.978 67.1758C36.9309 66.9854 36.9024 66.7925 36.8622 66.5974C36.7896 66.2484 36.738 65.8953 36.7077 65.5401C36.6812 65.245 36.671 64.959 36.6539 64.6778C36.6084 63.5271 36.6188 62.3995 36.685 61.2647C36.6996 59.449 36.8799 57.6382 37.2238 55.8551C37.3271 55.4525 37.3886 55.0477 37.5222 54.6451C38.078 53.1714 38.6631 52.8693 39.6708 53.1516C39.9095 53.206 40.1436 53.2782 40.3715 53.3676C41.0919 53.7491 41.4331 54.5936 41.18 55.3687C40.5621 58.078 40.2225 60.8431 40.1665 63.6211C40.1605 63.928 40.1661 64.2372 40.174 64.5347C40.182 64.8323 40.2156 65.1832 40.2278 65.3668C40.2278 65.3668 40.2278 65.3668 40.1791 65.3996C40.1304 65.4323 40.1791 65.3996 40.2071 65.4413C40.2071 65.4413 40.1584 65.474 40.3048 65.4363L40.9719 65.3618L41.042 65.4662Z" fill="#FEFEFE" fill-opacity="0.5"/>
<path id="Path_4" d="M30.8613 65.2567C30.9186 64.9962 31.2033 65.2997 31.6471 65.9304C31.8357 66.2351 31.9844 66.5627 32.0896 66.9053C32.0941 67.1126 32.0776 67.3198 32.0404 67.5239C31.7147 67.9163 31.3615 68.285 30.9835 68.6274C30.7486 68.8765 30.4607 69.0699 30.1412 69.1931C29.5234 69.4464 28.9034 69.7114 28.2739 69.9322C28.1278 69.9834 27.9714 69.9984 27.8183 69.9758C27.2997 69.9191 26.7756 70.0088 26.3053 70.2347C26.2356 70.2814 26.1356 70.2679 26.0755 70.389C25.5787 70.7147 25.0013 70.8962 24.4076 70.9135C23.9211 70.7758 23.4489 70.7194 22.9788 70.5909C22.9461 70.5422 22.8744 70.661 22.7692 70.4894C22.5636 70.1833 22.4614 70.2418 22.3242 70.233C22.1181 70.2273 21.9157 70.1773 21.7308 70.0863C21.6036 69.9862 21.4967 69.8627 21.4157 69.7225C21.3389 69.501 21.3151 69.2646 21.3461 69.0322C21.4153 68.8646 21.3216 68.6348 21.3023 68.4256C21.2868 68.3546 21.2788 68.2822 21.2784 68.2095C21.5496 67.7904 21.8727 67.4073 22.2399 67.0691L22.4675 66.9869C22.5789 66.9121 22.7647 66.8579 22.9459 66.7968C23.2135 66.6995 23.4755 66.5875 23.7308 66.4615C23.8074 66.4101 23.9099 66.4725 24.0007 66.5024C24.0915 66.5323 25.0851 65.9962 25.1292 65.9868C25.3687 65.9673 25.5611 65.7876 25.8618 66.0097C25.9038 66.0723 25.9665 66.0302 26.0129 66.0091C26.4084 65.8841 26.8187 65.8123 27.2331 65.7954C27.434 65.7477 27.6306 65.6832 27.8208 65.6026C27.8208 65.6026 27.9139 65.6209 27.9488 65.6277C27.9837 65.6346 28.0628 65.6622 28.1093 65.6411C28.5915 65.525 29.0579 65.3507 29.4982 65.1222C29.5957 65.0568 30.2309 65.1754 30.3282 65.0797C30.4256 64.984 30.8198 65.3755 30.8613 65.2567Z" fill="#FEFEFE" fill-opacity="0.5"/>
<path id="Path_5" d="M41.9658 74.6481C41.7909 74.493 42.1486 74.3638 42.7992 74.2196C43.1099 74.1747 43.4254 74.1735 43.7363 74.2162C43.9097 74.2981 44.0744 74.3972 44.2279 74.512C44.284 74.5955 44.6753 75.5542 44.8392 75.8884C44.9741 76.1851 45.0487 76.5057 45.0584 76.8315C45.1092 77.4637 45.1856 78.0888 45.2481 78.7233C45.2595 78.8638 45.2318 79.0047 45.1679 79.1304C44.9823 79.5643 44.951 80.0485 45.0792 80.5025C45.0822 80.6023 45.1422 80.6915 45.2334 80.7321C45.4548 80.8661 45.5888 82.0885 45.494 82.233C45.3835 82.4192 45.2832 82.6113 45.1935 82.8083C45.108 82.9969 44.997 83.1926 44.8999 83.379C44.8029 83.5653 44.956 83.4625 44.7516 83.5492C44.3451 83.6809 44.4175 83.7737 44.397 83.9086C44.3355 84.0845 44.244 84.2485 44.1265 84.3931C43.9904 84.5102 43.8408 84.6107 43.6809 84.6924C43.4408 84.7899 43.1847 84.842 42.9257 84.8462C42.7023 84.8379 42.4794 84.8742 42.2702 84.9532C42.2076 84.9953 42.0936 84.9911 42.0309 85.0029C41.4744 84.7138 40.9796 84.3192 40.5739 83.8412L40.5079 83.5624C40.4678 83.3975 40.4067 83.1862 40.3642 82.9724C40.2861 82.5403 40.2102 82.0663 40.203 82.0105C40.1959 81.9547 40.2652 81.8173 40.337 81.7287C40.4088 81.6401 40.1679 80.439 40.1887 80.3948C40.2576 80.1365 40.1568 79.8811 40.5118 79.6427C40.5815 79.5959 40.5673 79.5448 40.5649 79.496C40.6084 79.0569 40.7135 78.626 40.8771 78.2162C40.9257 78.0054 40.9539 77.7904 40.9611 77.5742C40.9611 77.5742 41.0377 77.5228 41.0445 77.4576C41.0512 77.3925 41.1419 77.3922 41.1207 77.3155C41.2269 76.8165 41.2884 76.309 41.3043 75.799C41.29 75.6875 41.6627 75.1444 41.6274 75.0167C41.5921 74.889 42.0427 74.7176 41.9658 74.6481Z" fill="#FEFEFE" fill-opacity="0.5"/>
</g>
<defs>
<linearGradient id="paint0_linear_88_1217" x1="61.7492" y1="13.9043" x2="43.0098" y2="63.2515" gradientUnits="userSpaceOnUse">
<stop stop-color="#FEFEFE" stop-opacity="0"/>
<stop offset="1" stop-color="white" stop-opacity="0.7"/>
</linearGradient>
</defs>
</svg>
