<svg width="25" height="24" viewBox="0 0 25 24" fill="none" xmlns="http://www.w3.org/2000/svg">
<g id="award_star">
<mask id="mask0_88_377" style="mask-type:alpha" maskUnits="userSpaceOnUse" x="0" y="0" width="25" height="24">
<rect id="Bounding box" x="0.5" width="24" height="24" fill="#D9D9D9"/>
</mask>
<g mask="url(#mask0_88_377)">
<path id="award_star_2" d="M9.57593 16.2504L12.5009 14.4754L15.4259 16.2504L14.6509 12.9254L17.2509 10.6754L13.8259 10.4004L12.5009 7.25044L11.1759 10.4004L7.75093 10.6754L10.3509 12.9254L9.57593 16.2504ZM12.5009 23.3004L9.15093 20.0004H4.50093V15.3504L1.20093 12.0004L4.50093 8.65044V4.00044H9.15093L12.5009 0.700439L15.8509 4.00044H20.5009V8.65044L23.8009 12.0004L20.5009 15.3504V20.0004H15.8509L12.5009 23.3004ZM12.5009 20.5004L15.0009 18.0004H18.5009V14.5004L21.0009 12.0004L18.5009 9.50044V6.00044H15.0009L12.5009 3.50044L10.0009 6.00044H6.50093V9.50044L4.00093 12.0004L6.50093 14.5004V18.0004H10.0009L12.5009 20.5004Z" fill="#992E9D"/>
</g>
</g>
</svg>
