<svg width="24" height="20" viewBox="0 0 24 20" fill="none" xmlns="http://www.w3.org/2000/svg">
<g id="Group">
<path id="Vector" d="M23.0382 6.88408C20.6097 3.13731 16.4637 0.858539 11.999 0.81665C7.53424 0.858539 3.38824 3.13731 0.959815 6.88408C-0.319938 8.7622 -0.319938 11.2322 0.959815 13.1103C3.38687 16.8594 7.53311 19.1405 11.999 19.1838C16.4637 19.1419 20.6097 16.8631 23.0382 13.1164C24.3206 11.2368 24.3206 8.76356 23.0382 6.88408ZM20.5533 11.4075C18.6992 14.3483 15.4753 16.1424 11.999 16.1682C8.52266 16.1425 5.29873 14.3483 3.44464 11.4075C2.86663 10.5583 2.86663 9.44208 3.44464 8.59295C5.29868 5.6522 8.52261 3.85805 11.999 3.83227C15.4753 3.858 18.6992 5.6522 20.5533 8.59295C21.1313 9.44208 21.1313 10.5583 20.5533 11.4075Z" fill="#B73BBE"/>
<path id="Vector_2" d="M11.9988 14.0209C14.2195 14.0209 16.0196 12.2207 16.0196 10.0001C16.0196 7.77943 14.2195 5.97925 11.9988 5.97925C9.77821 5.97925 7.97803 7.77943 7.97803 10.0001C7.97803 12.2207 9.77821 14.0209 11.9988 14.0209Z" fill="#B73BBE"/>
</g>
</svg>
